<svg xmlns="http://www.w3.org/2000/svg" viewBox="0 0 100 100" fill="none">
  <rect width="100" height="100" rx="22" fill="#121316"/>
  <rect x="1" y="1" width="98" height="98" rx="21" stroke="#27272a" stroke-width="2"/>
  <!-- Stylized F / Global Dumbbell / Exim Symbol -->
  <path d="M28 26H72C73.1046 26 74 26.8954 74 28V36C74 37.1046 73.1046 38 72 38H42V48H64C65.1046 48 66 48.8954 66 50V58C66 59.1046 65.1046 60 64 60H42V72C42 73.1046 41.1046 74 40 74H30C28.8954 74 28 73.1046 28 72V28C28 26.8954 28.8954 26 30 26H28Z" fill="url(#fortura-grad)"/>
  <circle cx="70" cy="70" r="5" fill="#1fd38a"/>
  <defs>
    <linearGradient id="fortura-grad" x1="28" y1="26" x2="74" y2="74" gradientUnits="userSpaceOnUse">
      <stop stop-color="#1fd38a"/>
      <stop offset="1" stop-color="#10b981"/>
    </linearGradient>
  </defs>
</svg>
